<svg width="90" height="90" viewBox="0 0 90 90" fill="none" xmlns="http://www.w3.org/2000/svg"><rect width="90" height="90" rx="45" fill="#3BC5CE"></rect><path d="M31.2123 46.8191V45.0622C31.2123 44.5851 30.8248 44.1988 30.3466 44.1988H21.7656C21.2875 44.1988 20.9 44.5851 20.9 45.0622V64.0488C20.9 64.5258 21.2875 64.9121 21.7656 64.9121H30.3466C30.8248 64.9121 31.2123 64.5258 31.2123 64.0488V62.079H33.442C33.5863 62.079 33.7285 62.1182 33.8511 62.1918L33.8511 62.1919L42.5749 67.4239C43.7827 68.1487 45.2361 68.2973 46.5816 67.8398L46.5816 67.8399L46.5849 67.8387L67.9778 59.729C69.6678 59.1544 70.5298 57.2983 69.887 55.6443L69.887 55.6443C69.35 54.2647 67.8968 53.4465 66.4393 53.6952L66.4386 53.6953C66.4039 53.7015 66.3693 53.7095 66.3344 53.7201L56.6381 56.651C56.6514 56.5519 56.6607 56.4497 56.6607 56.3444C56.6607 54.7805 55.385 53.5089 53.8175 53.5089H45.6507C45.1477 53.5089 44.6544 53.3369 44.2609 53.0244L38.0538 48.0932C38.0538 48.0932 38.0538 48.0932 38.0538 48.0932C37.02 47.2714 35.7233 46.8191 34.4005 46.8191H31.2123ZM36.9753 49.4437L36.9753 49.4437L43.1825 54.3753L43.1825 54.3753C43.8814 54.9302 44.7571 55.2356 45.6507 55.2356H53.8175C54.431 55.2356 54.9295 55.7334 54.9295 56.3444C54.9295 56.9558 54.4309 57.4535 53.8175 57.4535H44.4881C44.0099 57.4535 43.6225 57.8399 43.6225 58.3169C43.6225 58.7939 44.0099 59.1803 44.4881 59.1803C45.143 59.1804 45.7541 59.1806 46.3241 59.1808C50.2521 59.1819 52.2331 59.1825 53.2406 59.1791C53.8166 59.1772 54.0764 59.1741 54.2001 59.1689C54.2601 59.1664 54.2954 59.1632 54.321 59.1573C54.3364 59.1537 54.3471 59.1494 54.3547 59.1462C54.3571 59.1452 54.3585 59.1446 54.3595 59.1442C54.3608 59.1437 54.3613 59.1435 54.3624 59.1432L66.7783 55.3901C67.4168 55.3022 68.0383 55.6667 68.2725 56.2685L68.2725 56.2685C68.5477 56.975 68.2177 57.8231 67.3929 58.1041L67.3929 58.104L67.3897 58.1052L45.9983 66.2144C45.9978 66.2145 45.9973 66.2147 45.9967 66.2149C45.1518 66.5018 44.2313 66.4021 43.4673 65.9441L34.7428 60.7117L34.7427 60.7116C34.3496 60.4765 33.8997 60.3523 33.442 60.3523H31.2123V48.5458H34.4005C35.3327 48.5458 36.2469 48.8647 36.9753 49.4437ZM29.481 63.1854H22.6312V45.9255H29.481V63.1854Z" fill="white" stroke="white" strokeWidth="0.2"></path><path d="M40.5357 40.2834C40.5357 46.1159 45.2949 50.8605 51.1435 50.8605C56.9922 50.8605 61.7513 46.1159 61.7513 40.2834C61.7513 34.4509 56.9922 29.7066 51.1435 29.7066C45.2949 29.7066 40.5357 34.4509 40.5357 40.2834ZM51.1435 31.4334C56.0381 31.4334 60.0201 35.4039 60.0201 40.2834C60.0201 45.1632 56.0381 49.1338 51.1435 49.1338C46.2489 49.1338 42.267 45.1632 42.267 40.2834C42.267 35.4039 46.2489 31.4334 51.1435 31.4334Z" fill="white" stroke="white" strokeWidth="0.2"></path><path d="M25.7052 56.523C24.1818 56.523 22.942 57.7588 22.942 59.2784C22.942 60.798 24.1818 62.0337 25.7052 62.0337C27.2286 62.0337 28.4684 60.798 28.4684 59.2784C28.4684 57.7588 27.2286 56.523 25.7052 56.523ZM25.7052 60.307C25.1358 60.307 24.6732 59.8453 24.6732 59.2784C24.6732 58.7114 25.1358 58.2498 25.7052 58.2498C26.2746 58.2498 26.7372 58.7114 26.7372 59.2784C26.7372 59.8453 26.2746 60.307 25.7052 60.307Z" fill="white" stroke="white" strokeWidth="0.2"></path><path d="M50.2938 45.2563L50.2938 45.2564C50.3006 45.7294 50.6863 46.1082 51.1594 46.1082H51.1594H51.1595H51.1595H51.1595H51.1595H51.1595H51.1595H51.1596H51.1596H51.1596H51.1596H51.1596H51.1596H51.1597H51.1597H51.1597H51.1597H51.1597H51.1598H51.1598H51.1598H51.1598H51.1598H51.1598H51.1599H51.1599H51.1599H51.1599H51.1599H51.16H51.16H51.16H51.16H51.16H51.16H51.1601H51.1601H51.1601H51.1601H51.1601H51.1601H51.1602H51.1602H51.1602H51.1602H51.1602H51.1603H51.1603H51.1603H51.1603H51.1603H51.1604H51.1604H51.1604H51.1604H51.1604H51.1604H51.1605H51.1605H51.1605H51.1605H51.1605H51.1606H51.1606H51.1606H51.1606H51.1606H51.1606H51.1607H51.1607H51.1607H51.1607H51.1607H51.1608H51.1608H51.1608H51.1608H51.1608H51.1609H51.1609H51.1609H51.1609H51.1609H51.1609H51.161H51.161H51.161H51.161H51.161H51.1611H51.1611H51.1611H51.1611H51.1611H51.1612H51.1612H51.1612H51.1612H51.1612H51.1612H51.1613H51.1613H51.1613H51.1613H51.1613H51.1614H51.1614H51.1614H51.1614H51.1614H51.1615H51.1615H51.1615H51.1615H51.1615H51.1616H51.1616H51.1616H51.1616H51.1616H51.1617H51.1617H51.1617H51.1617H51.1617H51.1617H51.1618H51.1618H51.1618H51.1618H51.1618H51.1619H51.1619H51.1619H51.1619H51.1619H51.162H51.162H51.162H51.162H51.162H51.1621H51.1621H51.1621H51.1621H51.1621H51.1622H51.1622H51.1622H51.1622H51.1622H51.1623H51.1623H51.1623H51.1623H51.1623H51.1624H51.1624H51.1624H51.1624H51.1624H51.1625H51.1625H51.1625H51.1625H51.1625H51.1626H51.1626H51.1626H51.1626H51.1626H51.1627H51.1627H51.1627H51.1627H51.1627H51.1628H51.1628H51.1628H51.1628H51.1628H51.1629H51.1629H51.1629H51.1629H51.1629H51.163H51.163H51.163H51.163H51.163H51.1631H51.1631H51.1631H51.1631H51.1631H51.1632H51.1632H51.1632H51.1632H51.1632H51.1633H51.1633H51.1633H51.1633H51.1633H51.1634H51.1634H51.1634H51.1634H51.1634H51.1635H51.1635H51.1635H51.1635H51.1635H51.1636H51.1636H51.1636H51.1636H51.1636H51.1637H51.1637H51.1637H51.1637H51.1637H51.1638H51.1638H51.1638H51.1638H51.1639H51.1639H51.1639H51.1639H51.1639H51.164H51.164H51.164H51.164H51.164H51.1641H51.1641H51.1641H51.1641H51.1641H51.1642H51.1642H51.1642H51.1642H51.1642H51.1643H51.1643H51.1643H51.1643H51.1643H51.1644H51.1644H51.1644H51.1644H51.1645H51.1645H51.1645H51.1645H51.1645H51.1646H51.1646H51.1646H51.1646H51.1646H51.1647H51.1647H51.1647H51.1647H51.1647H51.1648H51.1648H51.1648H51.1648H51.1649H51.1649H51.1649H51.1649H51.1649H51.165H51.165H51.165H51.165H51.165H51.1651H51.1651H51.1651H51.1651H51.1651H51.1652H51.1652H51.1652H51.1652H51.1653H51.1653H51.1653H51.1653H51.1653H51.1654H51.1654H51.1654H51.1654H51.1654H51.1655H51.1655H51.1655H51.1655H51.1655H51.1656H51.1656H51.1656H51.1656H51.1657H51.1657H51.1657H51.1657H51.1657H51.1658H51.1658H51.1658H51.1658H51.1658H51.1659H51.1659H51.1659H51.1659H51.166H51.166H51.166H51.166H51.166H51.1661H51.1661H51.1661H51.1661H51.1661H51.1662H51.1662H51.1662H51.1662H51.1663H51.1663H51.1663H51.1663H51.1663H51.1664H51.1664H51.1664H51.1664H51.1664H51.1665H51.1665H51.1665H51.1665H51.1666H51.1666H51.1666H51.1666H51.1666H51.1667H51.1667H51.1667H51.1667H51.1667H51.1668H51.1668H51.1668H51.1668H51.1669H51.1669H51.1669H51.1669H51.1669H51.167H51.167H51.167H51.167H51.167H51.1671H51.1671H51.1671H51.1671H51.1672H51.1672H51.1672H51.1672H51.1672H51.1673H51.1673H51.1673H51.1673H51.1674H51.1674H51.1674H51.1674H51.1674H51.1675H51.1675H51.1675H51.1675H51.1675H51.1676H51.1676H51.1676H51.1676H51.1677H51.1677H51.1677H51.1677H51.1677H51.1678H51.1678H51.1678H51.1678H51.1678H51.1679H51.1679H51.1679H51.1679H51.168H51.168H51.168H51.168H51.168H51.1681H51.1681H51.1681H51.1681H51.1682H51.1682H51.1682H51.1682H51.1682H51.1683H51.1683H51.1683H51.1683H51.1684H51.1684H51.1684H51.1684H51.1684H51.1685H51.1685H51.1685H51.1685H51.1685H51.1686H51.1686H51.1686H51.1686H51.1687H51.1687H51.1687H51.1687H51.1687H51.1688H51.1688H51.1688H51.1688H51.1689H51.1689H51.1689H51.1689H51.1689H51.169H51.169H51.169H51.169H51.169H51.1691H51.1691H51.1691H51.1691H51.1692H51.1692H51.1692H51.1692H51.1692H51.1693H51.1693H51.1693H51.1693H51.1694H51.1694H51.1694H51.1694H51.1694H51.1695H51.1695H51.1695H51.1695H51.1696H51.1696H51.1696H51.1696H51.1696H51.1697H51.1697H51.1697H51.1697H51.1697H51.1698H51.1698H51.1698H51.1698H51.1699L51.1699 46.1082L51.1712 46.1082C51.6487 46.1019 52.0309 45.7105 52.025 45.2336L52.025 45.2335L52.0196 44.8274C53.1268 44.4601 53.9338 43.4287 53.9338 42.2008C53.9338 40.6673 52.682 39.4205 51.1445 39.4205C50.5608 39.4205 50.0863 38.9475 50.0863 38.3668C50.0863 37.7865 50.5601 37.3136 51.1437 37.3136C51.7265 37.3136 52.2004 37.7865 52.2004 38.3668C52.2004 38.8439 52.5878 39.2302 53.066 39.2302C53.5441 39.2302 53.9316 38.8439 53.9316 38.3668C53.9316 37.1321 53.1158 36.0962 51.9995 35.7344L51.9936 35.3109L51.9936 35.3107C51.986 34.8352 51.5672 34.4379 51.1143 34.4594C50.6371 34.4671 50.2557 34.858 50.2624 35.3346C50.2624 35.3346 50.2624 35.3346 50.2624 35.3346L50.268 35.741C49.1615 36.1085 48.3551 37.1393 48.3551 38.3668C48.3551 39.9003 49.6069 41.1472 51.1445 41.1472C51.7281 41.1472 52.2026 41.6201 52.2026 42.2008C52.2026 42.7815 51.7288 43.2544 51.1452 43.2544C50.5624 43.2544 50.0886 42.7815 50.0886 42.2008C50.0886 41.7237 49.7011 41.3374 49.2229 41.3374C48.7448 41.3374 48.3573 41.7237 48.3573 42.2008C48.3573 43.4351 49.1725 44.471 50.2882 44.8332L50.2938 45.2563Z" fill="white" stroke="white" strokeWidth="0.2"></path><path d="M52.5336 26.8523V21.7634C52.5336 21.2863 52.1461 20.9 51.668 20.9C51.1898 20.9 50.8023 21.2863 50.8023 21.7634V26.8523C50.8023 27.3293 51.1898 27.7156 51.668 27.7156C52.1461 27.7156 52.5336 27.3293 52.5336 26.8523Z" fill="white" stroke="white" strokeWidth="0.2"></path><path d="M57.3832 28.3152V23.2262C57.3832 22.7492 56.9957 22.3629 56.5176 22.3629C56.0394 22.3629 55.652 22.7492 55.652 23.2262V28.3152C55.652 28.7922 56.0394 29.1785 56.5176 29.1785C56.9957 29.1785 57.3832 28.7922 57.3832 28.3152Z" fill="white" stroke="white" strokeWidth="0.2"></path><path d="M47.8763 28.3152V23.2262C47.8763 22.7492 47.4889 22.3629 47.0107 22.3629C46.5326 22.3629 46.1451 22.7492 46.1451 23.2262V28.3152C46.1451 28.7922 46.5326 29.1785 47.0107 29.1785C47.4889 29.1785 47.8763 28.7922 47.8763 28.3152Z" fill="white" stroke="white" strokeWidth="0.2"></path></svg>