<svg width="90" height="90" viewBox="0 0 90 90" fill="none" xmlns="http://www.w3.org/2000/svg"><rect width="90" height="90" rx="45" fill="#3BC5CE"></rect><path d="M44.9946 18C30.0968 18 18 30.0972 18 44.9946C18 59.892 30.0968 71.9893 44.9946 71.9893C59.8924 71.9893 71.9893 59.892 71.9893 44.9946C71.9893 30.0972 59.8924 18 44.9946 18ZM44.9946 19.9645C58.8308 19.9645 70.0248 31.159 70.0248 44.9946C70.0248 58.8303 58.8308 70.0248 44.9946 70.0248C31.1585 70.0248 19.9645 58.8303 19.9645 44.9946C19.9645 31.159 31.1585 19.9645 44.9946 19.9645ZM44.9946 22.3799C32.5146 22.3799 22.3798 32.5149 22.3798 44.9946C22.3798 57.4743 32.5146 67.6113 44.9946 67.6113C57.4747 67.6113 67.6113 57.4743 67.6113 44.9946C67.6113 32.5149 57.4747 22.3799 44.9946 22.3799ZM44.0085 24.3693V27.318C44.0056 27.4489 44.0289 27.5789 44.0769 27.7006C44.125 27.8224 44.1969 27.9333 44.2884 28.0268C44.3799 28.1204 44.4891 28.1947 44.6098 28.2455C44.7304 28.2962 44.8599 28.3223 44.9908 28.3223C45.1217 28.3223 45.2512 28.2962 45.3718 28.2455C45.4924 28.1947 45.6017 28.1204 45.6932 28.0268C45.7847 27.9333 45.8566 27.8224 45.9046 27.7006C45.9527 27.5789 45.976 27.4489 45.973 27.318V24.3693C50.9412 24.6002 55.431 26.5948 58.8728 29.7237L57.0675 31.5309C56.8897 31.7169 56.7917 31.9652 56.7947 32.2226C56.7977 32.4799 56.9014 32.7258 57.0835 32.9077C57.2656 33.0895 57.5117 33.1929 57.769 33.1955C58.0264 33.1982 58.2745 33.0999 58.4603 32.9218L60.2656 31.1166C63.3927 34.5562 65.3871 39.0441 65.62 44.0086H62.6732C62.5424 44.0057 62.4122 44.0288 62.2904 44.0768C62.1687 44.1249 62.0577 44.1967 61.9641 44.2882C61.8705 44.3797 61.7961 44.489 61.7453 44.6097C61.6945 44.7303 61.6684 44.8599 61.6684 44.9908C61.6684 45.1217 61.6945 45.2514 61.7453 45.372C61.7961 45.4927 61.8705 45.6019 61.9641 45.6934C62.0577 45.7849 62.1687 45.8568 62.2904 45.9048C62.4122 45.9529 62.5424 45.976 62.6732 45.973H65.62C65.3891 50.9413 63.3947 55.431 60.2656 58.8728L58.4603 57.0676C58.3688 56.9735 58.2593 56.8986 58.1384 56.8475C58.0174 56.7965 57.8875 56.7702 57.7562 56.7702C57.5597 56.7686 57.3672 56.8261 57.2037 56.9351C57.0401 57.0441 56.9131 57.1997 56.8389 57.3817C56.7648 57.5637 56.7469 57.7639 56.7876 57.9561C56.8284 58.1484 56.9259 58.324 57.0675 58.4603L58.8728 60.2656C55.431 63.3948 50.9414 65.3892 45.973 65.6201V62.6733C45.9746 62.5425 45.95 62.4127 45.9007 62.2916C45.8514 62.1704 45.7784 62.0605 45.6861 61.9679C45.5937 61.8753 45.4838 61.8021 45.3627 61.7526C45.2417 61.7031 45.112 61.6782 44.9812 61.6794C44.852 61.6807 44.7244 61.7074 44.6056 61.7581C44.4868 61.8087 44.3791 61.8824 44.2888 61.9747C44.1984 62.067 44.1272 62.1762 44.0791 62.2961C44.031 62.416 44.007 62.5441 44.0085 62.6733V65.6201C39.0444 65.3873 34.5556 63.3939 31.1146 60.2674L32.9218 58.4603C33.0654 58.3223 33.1637 58.1441 33.2037 57.949C33.2436 57.7539 33.2234 57.5512 33.1456 57.3679C33.0677 57.1846 32.9361 57.0293 32.768 56.9225C32.5998 56.8158 32.4033 56.7626 32.2043 56.7702C31.9497 56.7783 31.7083 56.8849 31.5309 57.0676L29.7218 58.8747C26.5902 55.4327 24.5927 50.942 24.3616 45.973H27.318C27.5746 45.9672 27.8188 45.8611 27.9982 45.6776C28.1776 45.494 28.2781 45.2475 28.2781 44.9908C28.2781 44.7341 28.1776 44.4876 27.9982 44.304C27.8188 44.1204 27.5746 44.0145 27.318 44.0086H24.3616C24.5947 39.0434 26.5922 34.5544 29.7218 31.1146L31.5309 32.9218C31.6207 33.0197 31.7294 33.0984 31.8504 33.1532C31.9714 33.208 32.1023 33.2377 32.2351 33.2405C32.3679 33.2434 32.4999 33.2193 32.6232 33.1698C32.7465 33.1203 32.8585 33.0464 32.9524 32.9524C33.0463 32.8585 33.1203 32.7465 33.1698 32.6232C33.2193 32.4999 33.2434 32.368 33.2405 32.2351C33.2376 32.1023 33.2079 31.9714 33.1531 31.8504C33.0984 31.7294 33.0197 31.6207 32.9218 31.5309L31.1165 29.7237C34.5574 26.5976 39.0447 24.6022 44.0085 24.3693ZM35.1625 34.1765C34.966 34.1749 34.7735 34.2325 34.61 34.3415C34.4465 34.4506 34.3194 34.6061 34.2452 34.7881C34.1711 34.9701 34.1532 35.1702 34.1939 35.3624C34.2347 35.5547 34.3322 35.7303 34.4738 35.8666L44.2982 45.6911C44.4358 45.8278 44.6108 45.9208 44.8012 45.9582C44.9916 45.9956 45.1887 45.9758 45.3679 45.9013C45.547 45.8268 45.7001 45.7011 45.8078 45.5397C45.9155 45.3783 45.973 45.1886 45.973 44.9946V35.1703C45.9673 34.9136 45.8613 34.6693 45.6777 34.4897C45.4942 34.3102 45.2476 34.2095 44.9908 34.2095C44.734 34.2095 44.4874 34.3102 44.3038 34.4897C44.1202 34.6693 44.0143 34.9136 44.0085 35.1703V42.6177L35.8666 34.4739C35.7751 34.3798 35.6656 34.3049 35.5447 34.2538C35.4237 34.2028 35.2938 34.1765 35.1625 34.1765Z" fill="white"></path></svg>