<svg width="90" height="90" viewBox="0 0 90 90" fill="none" xmlns="http://www.w3.org/2000/svg"><rect width="90" height="90" rx="45" fill="#3BC5CE"></rect><path d="M29.343 37.2836C29.343 37.0661 29.2565 36.8574 29.1027 36.7036C28.9489 36.5498 28.7403 36.4634 28.5227 36.4634C26.1055 36.4667 23.7883 37.4286 22.0793 39.1381C20.3703 40.8475 19.409 43.165 19.4062 45.5822C19.4062 45.6899 19.4275 45.7966 19.4687 45.8961C19.5099 45.9956 19.5703 46.086 19.6465 46.1622C19.7227 46.2384 19.8131 46.2988 19.9126 46.34C20.0121 46.3812 20.1188 46.4024 20.2265 46.4024C20.3342 46.4024 20.4409 46.3812 20.5404 46.34C20.6399 46.2988 20.7303 46.2384 20.8065 46.1622C20.8827 46.086 20.9431 45.9956 20.9843 45.8961C21.0255 45.7966 21.0467 45.6899 21.0467 45.5822C21.049 43.5998 21.8373 41.6993 23.2389 40.2974C24.6405 38.8954 26.5408 38.1066 28.5232 38.1039C28.7407 38.1038 28.9492 38.0173 29.1029 37.8635C29.2566 37.7097 29.343 37.5011 29.343 37.2836Z" fill="white"></path><path d="M36.4722 19.7583C35.2101 19.7598 34.0002 20.2618 33.1078 21.1542C32.2154 22.0466 31.7134 23.2565 31.7119 24.5186C31.7119 24.7361 31.7983 24.9447 31.9522 25.0986C32.106 25.2524 32.3146 25.3388 32.5322 25.3388C32.7497 25.3388 32.9583 25.2524 33.1122 25.0986C33.266 24.9447 33.3524 24.7361 33.3524 24.5186C33.3524 23.6911 33.6811 22.8975 34.2662 22.3124C34.8513 21.7273 35.6449 21.3986 36.4724 21.3986C37.2999 21.3986 38.0935 21.7273 38.6786 22.3124C39.2637 22.8975 39.5924 23.6911 39.5924 24.5186C39.5924 24.7361 39.6788 24.9447 39.8326 25.0986C39.9865 25.2524 40.1951 25.3388 40.4126 25.3388C40.6302 25.3388 40.8388 25.2524 40.9926 25.0986C41.1465 24.9447 41.2329 24.7361 41.2329 24.5186C41.2314 23.2564 40.7293 22.0464 39.8368 21.154C38.9443 20.2616 37.7343 19.7597 36.4722 19.7583Z" fill="white"></path><path d="M31.8154 31.7499H32.1669C33.2367 31.751 34.2625 32.1765 35.0189 32.933C35.7754 33.6895 36.2009 34.7152 36.2021 35.785V38.4365C36.2009 39.5064 35.7754 40.5321 35.0189 41.2886C34.2625 42.0451 33.2367 42.4706 32.1669 42.4717C31.9494 42.4717 31.7407 42.5581 31.5869 42.7119C31.4331 42.8658 31.3467 43.0744 31.3467 43.2919C31.3467 43.5095 31.4331 43.7181 31.5869 43.8719C31.7407 44.0258 31.9494 44.1122 32.1669 44.1122C33.6716 44.1104 35.1143 43.5119 36.1783 42.4479C37.2423 41.3839 37.8408 39.9413 37.8425 38.4365V35.785C37.8408 34.2803 37.2423 32.8377 36.1783 31.7737C35.1143 30.7096 33.6716 30.1111 32.1669 30.1094H31.8154C31.5978 30.1094 31.3892 30.1958 31.2354 30.3496C31.0815 30.5034 30.9951 30.7121 30.9951 30.9296C30.9951 31.1472 31.0815 31.3558 31.2354 31.5096C31.3892 31.6635 31.5978 31.7499 31.8154 31.7499Z" fill="white"></path><path d="M37.0294 52.373C37.2469 52.373 37.4556 52.2866 37.6094 52.1327C37.7632 51.9789 37.8496 51.7703 37.8496 51.5527C37.8496 51.3352 37.7632 51.1265 37.6094 50.9727C37.4556 50.8189 37.2469 50.7325 37.0294 50.7325H32.3423C31.084 50.7311 29.8777 50.2307 28.988 49.341C28.0983 48.4513 27.5979 47.245 27.5966 45.9868C27.5966 45.7692 27.5101 45.5606 27.3563 45.4068C27.2025 45.2529 26.9938 45.1665 26.7763 45.1665C26.5588 45.1665 26.3501 45.2529 26.1963 45.4068C26.0425 45.5606 25.9561 45.7692 25.9561 45.9868C25.958 47.6799 26.6315 49.3031 27.8287 50.5003C29.0259 51.6975 30.6492 52.371 32.3423 52.373H37.0294Z" fill="white"></path><path d="M40.017 62.0991C38.4636 62.0973 36.9744 61.4795 35.876 60.3811C34.7776 59.2827 34.1598 57.7935 34.1581 56.2402C34.1581 56.0226 34.0717 55.814 33.9178 55.6602C33.764 55.5063 33.5554 55.4199 33.3378 55.4199C33.1203 55.4199 32.9116 55.5063 32.7578 55.6602C32.604 55.814 32.5176 56.0226 32.5176 56.2402C32.5198 58.2285 33.3106 60.1347 34.7166 61.5406C36.1225 62.9465 38.0287 63.7373 40.017 63.7396C40.2345 63.7396 40.4432 63.6532 40.597 63.4993C40.7508 63.3455 40.8372 63.1369 40.8372 62.9193C40.8372 62.7018 40.7508 62.4932 40.597 62.3393C40.4432 62.1855 40.2345 62.0991 40.017 62.0991Z" fill="white"></path><path d="M28.379 60.3911C27.7216 60.292 27.1303 59.9361 26.7349 59.4016C26.3395 58.8671 26.1723 58.1976 26.2698 57.5399C26.2873 57.4327 26.2834 57.3231 26.2582 57.2175C26.233 57.1118 26.1871 57.0122 26.1231 56.9244C26.0591 56.8367 25.9783 56.7625 25.8854 56.7062C25.7925 56.6499 25.6894 56.6126 25.5819 56.5965C25.4745 56.5804 25.365 56.5858 25.2596 56.6123C25.1543 56.6389 25.0553 56.6861 24.9684 56.7513C24.8815 56.8164 24.8083 56.8982 24.7533 56.9918C24.6982 57.0854 24.6623 57.1891 24.6476 57.2967C24.4861 58.3846 24.7627 59.4922 25.4167 60.3765C26.0707 61.2608 27.0487 61.8496 28.1362 62.0138C28.1767 62.0197 28.2176 62.0227 28.2585 62.0227C28.4656 62.0227 28.665 61.9444 28.8167 61.8034C28.9684 61.6625 29.0612 61.4694 29.0765 61.2629C29.0917 61.0564 29.0283 60.8517 28.8989 60.69C28.7696 60.5283 28.5838 60.4216 28.379 60.3911Z" fill="white"></path><path d="M36.6773 69.0539C35.7453 69.0529 34.8517 68.6822 34.1927 68.0231C33.5337 67.3641 33.163 66.4705 33.162 65.5385C33.162 65.321 33.0756 65.1123 32.9217 64.9585C32.7679 64.8047 32.5593 64.7183 32.3417 64.7183C32.1242 64.7183 31.9156 64.8047 31.7617 64.9585C31.6079 65.1123 31.5215 65.321 31.5215 65.5385C31.523 66.9055 32.0667 68.216 33.0332 69.1826C33.9998 70.1492 35.3104 70.6929 36.6773 70.6944C36.8949 70.6944 37.1035 70.6079 37.2573 70.4541C37.4112 70.3003 37.4976 70.0916 37.4976 69.8741C37.4976 69.6566 37.4112 69.4479 37.2573 69.2941C37.1035 69.1403 36.8949 69.0539 36.6773 69.0539Z" fill="white"></path><path d="M71.743 48.0375C71.1658 48.0381 70.5993 48.1935 70.1025 48.4875L59.4627 37.8477C59.309 37.6939 59.1004 37.6074 58.8829 37.6073H45.8176V32.5311H68.6003C68.7998 33.2964 69.2713 33.9628 69.9266 34.4055C70.5819 34.8482 71.3761 35.037 72.1606 34.9364C72.945 34.8358 73.6659 34.4529 74.1884 33.8592C74.7108 33.2655 74.999 32.5017 74.999 31.7109C74.999 30.92 74.7108 30.1563 74.1884 29.5626C73.6659 28.9689 72.945 28.5859 72.1606 28.4853C71.3761 28.3848 70.5819 28.5735 69.9266 29.0162C69.2713 29.459 68.7998 30.1253 68.6003 30.8906H45.8176V27.2192H58.8829C59.1004 27.2191 59.309 27.1326 59.4627 26.9787L62.9781 23.4634C63.681 23.8292 64.4931 23.9264 65.2624 23.7367C66.0318 23.547 66.7056 23.0834 67.1578 22.4327C67.61 21.782 67.8095 20.9888 67.7191 20.2016C67.6287 19.4144 67.2545 18.6871 66.6665 18.1559C66.0785 17.6247 65.3171 17.326 64.5248 17.3157C63.7325 17.3054 62.9636 17.5841 62.362 18.0999C61.7604 18.6156 61.3673 19.3328 61.2564 20.1174C61.1455 20.902 61.3243 21.7001 61.7594 22.3624L58.5431 25.5787H45.8176V24.3385C45.8158 21.9238 44.8795 19.6036 43.2049 17.864C41.5303 16.1245 39.2473 15.1006 36.8345 15.007C34.4217 14.9135 32.0663 15.7574 30.262 17.3621C28.4577 18.9668 27.3445 21.2075 27.1558 23.6148C25.2352 23.897 23.4801 24.8605 22.211 26.3293C20.9418 27.7982 20.2432 29.6745 20.2427 31.6157C20.2418 32.6016 20.4236 33.5791 20.7789 34.4988C19.0206 35.727 17.5796 37.3558 16.575 39.2508C15.5704 41.1458 15.031 43.2525 15.0013 45.3971C14.9716 47.5417 15.4524 49.6626 16.4041 51.5847C17.3558 53.5068 18.7511 55.175 20.4747 56.4514C20.207 57.545 20.1707 58.6825 20.3682 59.7909C20.5657 60.8993 20.9927 61.9542 21.6217 62.888C22.2507 63.8218 23.0679 64.6138 24.0209 65.2134C24.9739 65.8129 26.0417 66.2066 27.1558 66.3694C27.3445 68.7767 28.4577 71.0175 30.2621 72.6222C32.0666 74.2269 34.4221 75.0708 36.835 74.9771C39.2479 74.8834 41.5308 73.8594 43.2054 72.1196C44.8799 70.3799 45.8161 68.0595 45.8176 65.6448V65.4985H54.7934L58.2891 69.941C57.8268 70.5874 57.616 71.3801 57.6962 72.1707C57.7764 72.9614 58.142 73.6956 58.7247 74.236C59.3073 74.7765 60.067 75.0859 60.8614 75.1065C61.6558 75.1271 62.4305 74.8574 63.0403 74.3478C63.6502 73.8383 64.0534 73.1239 64.1744 72.3385C64.2954 71.5531 64.1259 70.7505 63.6977 70.0811C63.2695 69.4116 62.6119 68.9212 61.8482 68.7017C61.0844 68.4823 60.2668 68.5487 59.5485 68.8887L55.8363 64.1711C55.7596 64.0736 55.6617 63.9947 55.5501 63.9405C55.4384 63.8862 55.3159 63.858 55.1918 63.858H45.8176V58.9365H54.4803C54.6798 59.7018 55.1513 60.3682 55.8066 60.8109C56.462 61.2536 57.2562 61.4424 58.0406 61.3418C58.825 61.2413 59.5459 60.8583 60.0684 60.2646C60.5908 59.6709 60.879 58.9071 60.879 58.1163C60.879 57.3254 60.5908 56.5617 60.0684 55.968C59.5459 55.3743 58.825 54.9913 58.0406 54.8907C57.2562 54.7902 56.462 54.9789 55.8066 55.4217C55.1513 55.8644 54.6798 56.5308 54.4803 57.296H45.8176V52.3745H59.6357C59.8352 53.1398 60.3067 53.8062 60.962 54.2489C61.6173 54.6916 62.4115 54.8804 63.196 54.7798C63.9804 54.6793 64.7013 54.2963 65.2238 53.7026C65.7462 53.1089 66.0344 52.3451 66.0344 51.5543C66.0344 50.7634 65.7462 49.9997 65.2238 49.406C64.7013 48.8123 63.9804 48.4293 63.196 48.3288C62.4115 48.2282 61.6173 48.417 60.962 48.8597C60.3067 49.3024 59.8352 49.9688 59.6357 50.7341H45.8176V45.8126H50.748C50.9662 46.5728 51.4541 47.2274 52.1202 47.654C52.7863 48.0805 53.585 48.2497 54.3668 48.1299C55.1486 48.01 55.86 47.6094 56.3678 47.003C56.8755 46.3965 57.1449 45.6258 57.1255 44.8351C57.106 44.0444 56.7991 43.2879 56.2622 42.7071C55.7253 42.1263 54.9951 41.7611 54.2083 41.6798C53.4215 41.5985 52.6321 41.8068 51.9878 42.2655C51.3434 42.7242 50.8883 43.402 50.7077 44.1721H45.8176V39.2506H58.5431L68.9415 49.6485C68.5803 50.2667 68.4334 50.9869 68.5236 51.6972C68.6139 52.4075 68.9363 53.068 69.4407 53.5762C69.9451 54.0843 70.6032 54.4116 71.3128 54.5072C72.0224 54.6027 72.7437 54.4612 73.3645 54.1046C73.9854 53.7479 74.471 53.1962 74.746 52.5351C75.0209 51.874 75.0697 51.1405 74.8849 50.4488C74.7 49.7571 74.2918 49.1458 73.7237 48.71C73.1556 48.2742 72.4595 48.0383 71.7435 48.0389L71.743 48.0375ZM71.743 30.0994C72.0618 30.0993 72.3734 30.1938 72.6384 30.3708C72.9035 30.5478 73.1101 30.7994 73.2321 31.0939C73.3542 31.3883 73.3862 31.7123 73.324 32.025C73.2619 32.3376 73.1085 32.6247 72.8831 32.8502C72.6578 33.0756 72.3706 33.2291 72.058 33.2913C71.7454 33.3535 71.4214 33.3216 71.1269 33.1997C70.8325 33.0777 70.5808 32.8712 70.4037 32.6062C70.2266 32.3412 70.1321 32.0296 70.1321 31.7109C70.1324 31.2837 70.3023 30.8741 70.6043 30.572C70.9063 30.2699 71.3158 30.0999 71.743 30.0994ZM64.478 18.967C64.7966 18.967 65.1081 19.0615 65.373 19.2385C65.6379 19.4155 65.8444 19.6671 65.9663 19.9615C66.0882 20.2559 66.1201 20.5798 66.058 20.8923C65.9958 21.2048 65.8424 21.4918 65.6171 21.7171C65.3918 21.9424 65.1048 22.0958 64.7923 22.158C64.4798 22.2202 64.1558 22.1883 63.8615 22.0663C63.5671 21.9444 63.3155 21.7379 63.1385 21.473C62.9615 21.2081 62.867 20.8966 62.867 20.578C62.8675 20.1509 63.0374 19.7414 63.3394 19.4394C63.6414 19.1374 64.0509 18.9675 64.478 18.967ZM62.5445 71.8247C62.5445 72.1434 62.4501 72.4548 62.273 72.7197C62.096 72.9847 61.8444 73.1911 61.5501 73.3131C61.2557 73.435 60.9318 73.4669 60.6193 73.4048C60.3068 73.3426 60.0197 73.1892 59.7944 72.9639C59.5691 72.7386 59.4157 72.4515 59.3536 72.139C59.2914 71.8265 59.3233 71.5026 59.4452 71.2082C59.5672 70.9139 59.7736 70.6623 60.0386 70.4853C60.3035 70.3083 60.6149 70.2138 60.9336 70.2138C61.3607 70.2143 61.7701 70.3842 62.0721 70.6862C62.3741 70.9882 62.544 71.3976 62.5445 71.8247ZM57.623 56.5039C57.9418 56.5038 58.2534 56.5983 58.5185 56.7753C58.7836 56.9523 58.9902 57.204 59.1122 57.4985C59.2342 57.7929 59.2662 58.117 59.204 58.4296C59.1418 58.7422 58.9884 59.0294 58.763 59.2548C58.5376 59.4802 58.2504 59.6337 57.9378 59.6958C57.6251 59.758 57.3011 59.7261 57.0066 59.604C56.7122 59.482 56.4605 59.2754 56.2835 59.0103C56.1064 58.7452 56.012 58.4336 56.0121 58.1149C56.0126 57.6878 56.1825 57.2783 56.4845 56.9763C56.7865 56.6743 57.1959 56.5044 57.623 56.5039ZM62.7789 49.9419C63.0976 49.9418 63.4093 50.0363 63.6743 50.2133C63.9394 50.3903 64.146 50.642 64.268 50.9365C64.3901 51.2309 64.422 51.555 64.3599 51.8676C64.2977 52.1803 64.1442 52.4674 63.9188 52.6928C63.6934 52.9182 63.4062 53.0717 63.0936 53.1339C62.781 53.196 62.4569 53.1641 62.1625 53.042C61.868 52.92 61.6163 52.7134 61.4393 52.4483C61.2623 52.1833 61.1678 51.8716 61.1679 51.5529C61.1684 51.1258 61.3383 50.7163 61.6403 50.4143C61.9423 50.1123 62.3518 49.9424 62.7789 49.9419ZM53.8705 43.3007C54.1893 43.3006 54.5009 43.3951 54.7659 43.5721C55.031 43.7491 55.2376 44.0007 55.3596 44.2952C55.4817 44.5896 55.5137 44.9136 55.4515 45.2263C55.3894 45.5389 55.236 45.826 55.0106 46.0515C54.7853 46.2769 54.4981 46.4304 54.1855 46.4926C53.8729 46.5548 53.5489 46.5229 53.2544 46.401C52.96 46.279 52.7083 46.0725 52.5312 45.8075C52.3541 45.5425 52.2596 45.2309 52.2596 44.9122C52.2599 44.485 52.4298 44.0754 52.7318 43.7733C53.0338 43.4712 53.4433 43.3012 53.8705 43.3007ZM44.1771 65.6438C44.1638 67.6769 43.3475 69.6223 41.906 71.0561C40.4646 72.4899 38.5148 73.2958 36.4817 73.2983C34.4485 73.3007 32.4969 72.4994 31.052 71.069C29.6071 69.6386 28.7862 67.6951 28.7681 65.6621C28.7681 65.649 28.7681 65.6349 28.7681 65.6241C28.7682 65.4141 28.6877 65.212 28.5432 65.0596C28.3987 64.9072 28.2012 64.816 27.9915 64.8048C27.0031 64.7538 26.0398 64.4757 25.1763 63.9922C24.3127 63.5087 23.5722 62.8327 23.0122 62.0168C22.4521 61.2008 22.0876 60.2667 21.947 59.2871C21.8063 58.3075 21.8932 57.3086 22.201 56.368C22.2562 56.1986 22.2547 56.0159 22.1968 55.8474C22.1389 55.6789 22.0276 55.5339 21.8799 55.4343C20.2362 54.3264 18.8958 52.825 17.9807 51.0667C17.0657 49.3084 16.605 47.3491 16.6407 45.3672C16.6764 43.3853 17.2073 41.4439 18.1851 39.7197C19.1629 37.9954 20.5565 36.5432 22.239 35.4953C22.4111 35.3879 22.5373 35.2205 22.5932 35.0254C22.6492 34.8304 22.6308 34.6215 22.5417 34.4392C22.0725 33.4829 21.8479 32.4251 21.8882 31.3606C21.9285 30.2961 22.2324 29.2583 22.7727 28.3402C23.313 27.4222 24.0727 26.6526 24.9837 26.1005C25.8947 25.5484 26.9285 25.2311 27.9924 25.177C28.2021 25.1658 28.3996 25.0746 28.5441 24.9222C28.6886 24.7698 28.7691 24.5677 28.7691 24.3577C28.7691 24.3474 28.7691 24.3338 28.7691 24.3202C28.7871 22.2872 29.608 20.3436 31.0528 18.9132C32.4976 17.4828 34.4493 16.6815 36.4824 16.6838C38.5155 16.6862 40.4653 17.492 41.9068 18.9258C43.3483 20.3595 44.1647 22.3049 44.178 24.338L44.1771 65.6438ZM71.743 52.9009C71.4243 52.9009 71.1127 52.8064 70.8477 52.6293C70.5827 52.4522 70.3762 52.2005 70.2542 51.906C70.1323 51.6116 70.1004 51.2875 70.1626 50.9749C70.2248 50.6623 70.3783 50.3752 70.6037 50.1499C70.8291 49.9245 71.1163 49.7711 71.4289 49.7089C71.7416 49.6468 72.0656 49.6788 72.36 49.8008C72.6545 49.9229 72.9061 50.1295 73.0831 50.3946C73.2601 50.6596 73.3546 50.9712 73.3545 51.2899C73.3538 51.717 73.1838 52.1265 72.8817 52.4284C72.5796 52.7303 72.1701 52.9001 71.743 52.9004V52.9009Z" fill="white"></path><path d="M69.311 36.2026C68.6678 36.2025 68.039 36.3932 67.5042 36.7505C66.9694 37.1077 66.5525 37.6156 66.3063 38.2098C66.0601 38.804 65.9956 39.4579 66.121 40.0887C66.2464 40.7195 66.5561 41.299 67.0109 41.7539C67.4657 42.2087 68.0451 42.5185 68.6759 42.644C69.3068 42.7695 69.9606 42.7051 70.5549 42.459C71.1491 42.2129 71.657 41.7961 72.0144 41.2613C72.3717 40.7265 72.5625 40.0978 72.5625 39.4546C72.5615 38.5925 72.2186 37.766 71.6091 37.1564C70.9995 36.5467 70.1731 36.2038 69.311 36.2026ZM69.311 41.0655C68.9922 41.0656 68.6806 40.9712 68.4156 40.7942C68.1505 40.6171 67.9439 40.3655 67.8218 40.071C67.6998 39.7765 67.6679 39.4525 67.73 39.1398C67.7922 38.8272 67.9457 38.54 68.1711 38.3146C68.3965 38.0893 68.6836 37.9358 68.9963 37.8736C69.3089 37.8114 69.6329 37.8434 69.9274 37.9654C70.2219 38.0874 70.4736 38.2941 70.6506 38.5591C70.8276 38.8242 70.9221 39.1358 70.922 39.4546C70.9215 39.8817 70.7516 40.2911 70.4496 40.5931C70.1476 40.8952 69.7381 41.065 69.311 41.0655Z" fill="white"></path><path d="M69.311 58.4902C68.6678 58.4901 68.039 58.6808 67.5042 59.0381C66.9694 59.3953 66.5525 59.9032 66.3063 60.4974C66.0601 61.0916 65.9956 61.7455 66.121 62.3763C66.2464 63.0071 66.5561 63.5866 67.0109 64.0415C67.4657 64.4963 68.0451 64.8061 68.6759 64.9316C69.3068 65.0571 69.9606 64.9927 70.5549 64.7466C71.1491 64.5005 71.657 64.0837 72.0144 63.5489C72.3717 63.0141 72.5625 62.3854 72.5625 61.7422C72.5615 60.8801 72.2186 60.0536 71.6091 59.444C70.9995 58.8343 70.1731 58.4914 69.311 58.4902ZM69.311 63.3531C68.9923 63.3532 68.6807 63.2588 68.4156 63.0818C68.1505 62.9048 67.9439 62.6531 67.8219 62.3587C67.6999 62.0642 67.6679 61.7402 67.73 61.4276C67.7921 61.115 67.9456 60.8278 68.1709 60.6024C68.3962 60.377 68.6834 60.2235 68.996 60.1613C69.3086 60.099 69.6326 60.1309 69.9271 60.2529C70.2216 60.3748 70.4733 60.5814 70.6504 60.8464C70.8274 61.1114 70.922 61.423 70.922 61.7417C70.9216 62.1689 70.7518 62.5785 70.4497 62.8806C70.1477 63.1827 69.7382 63.3526 69.311 63.3531Z" fill="white"></path></svg>